<?xml version="1.0" encoding="utf-8"?>
<!-- Generator: Adobe Illustrator 15.0.0, SVG Export Plug-In . SVG Version: 6.00 Build 0)  -->
<!DOCTYPE svg PUBLIC "-//W3C//DTD SVG 1.1//EN" "http://www.w3.org/Graphics/SVG/1.1/DTD/svg11.dtd">
<svg version="1.1" id="Layer_1" xmlns="http://www.w3.org/2000/svg" xmlns:xlink="http://www.w3.org/1999/xlink" x="0px" y="0px"
	 width="26px" height="26px" viewBox="0 0 26 26" enable-background="new 0 0 26 26" xml:space="preserve">
<g>
	<path d="M6.64,7.963c0.632,0.631,1.6,1.601,2.185,2.186c0.253,0.252,0.417,0.416,0.417,0.416s-0.674,0.677-0.955,0.956
		c-0.279,0.278,0.221,0.265,0.221,0.265l3.747,0.354c0,0,0.304,0.025,0.304-0.268c0-0.401-0.474-3.761-0.474-3.761
		S12.085,7.6,11.746,7.94c-0.34,0.342-0.884,0.884-0.884,0.884s-0.147-0.148-0.373-0.375c-0.572-0.572-1.581-1.58-2.214-2.213
		C8.044,7.045,7.43,7.69,6.64,7.963z"/>
	<path d="M14.501,17.783c0,0-0.001,0.512,0.339,0.172s0.885-0.883,0.885-0.883s0.146,0.146,0.372,0.373
		c0.601,0.602,1.689,1.689,2.312,2.313c0.294-0.781,0.957-1.381,1.776-1.586c-0.598-0.6-1.758-1.76-2.423-2.426
		c-0.253-0.252-0.418-0.416-0.418-0.416s0.677-0.678,0.955-0.955c0.28-0.279-0.221-0.266-0.221-0.266l-3.746-0.355
		c0,0-0.303-0.021-0.303,0.27C14.029,14.424,14.501,17.783,14.501,17.783z"/>
	<path d="M8.321,19.764c0.614-0.613,1.721-1.721,2.363-2.363c0.251-0.252,0.416-0.416,0.416-0.416s0.677,0.678,0.957,0.957
		c0.279,0.277,0.265-0.223,0.265-0.223l0.353-3.746c0,0,0.025-0.303-0.267-0.303c-0.403,0-3.763,0.473-3.763,0.473
		s-0.511-0.002-0.17,0.34c0.341,0.338,0.883,0.881,0.883,0.881s-0.147,0.148-0.375,0.375c-0.624,0.623-1.771,1.773-2.378,2.379
		C7.411,18.354,8.053,18.971,8.321,19.764z"/>
	<path d="M20.199,7.888c-0.629,0.629-1.644,1.644-2.247,2.249c-0.252,0.251-0.417,0.414-0.417,0.414s0.676,0.677,0.955,0.957
		c0.28,0.28-0.22,0.266-0.22,0.266l-3.748,0.354c0,0-0.302,0.024-0.302-0.269c0-0.402,0.472-3.761,0.472-3.761
		s-0.002-0.511,0.34-0.172c0.339,0.342,0.883,0.883,0.883,0.883s0.148-0.146,0.373-0.374c0.551-0.55,1.508-1.509,2.146-2.144
		C18.722,7.074,19.381,7.675,20.199,7.888z"/>
</g>
</svg>
