<?xml version="1.0" encoding="utf-8"?>
<!-- Generator: Adobe Illustrator 16.0.0, SVG Export Plug-In . SVG Version: 6.00 Build 0)  -->
<!DOCTYPE svg PUBLIC "-//W3C//DTD SVG 1.1//EN" "http://www.w3.org/Graphics/SVG/1.1/DTD/svg11.dtd">
<svg version="1.1" id="Layer_5" xmlns="http://www.w3.org/2000/svg" xmlns:xlink="http://www.w3.org/1999/xlink" x="0px" y="0px"
	 width="100px" height="100px" viewBox="0 0 100 100" enable-background="new 0 0 100 100" xml:space="preserve">
<path d="M61.825,40.456H37.794v-3.967c0-0.633-0.512-1.145-1.145-1.145c-0.634,0-1.145,0.512-1.145,1.145v3.792
	c0.54,0,1.066,0.063,1.576,0.175H11.475c-1.473,0-2.671,1.198-2.671,2.67v30.538c0,1.473,1.198,2.671,2.671,2.671h50.351
	c1.472,0,2.67-1.198,2.67-2.671V43.126C64.495,41.654,63.297,40.456,61.825,40.456z M62.206,73.664c0,0.211-0.171,0.382-0.381,0.382
	H11.475c-0.211,0-0.382-0.171-0.382-0.382V43.126c0-0.21,0.171-0.381,0.382-0.381h50.351c0.21,0,0.381,0.171,0.381,0.381V73.664z
	 M45.072,24.802c0-0.625,0.511-1.137,1.144-1.137h6.866c0.633,0,1.145,0.512,1.145,1.137c0,0.634-0.512,1.145-1.145,1.145h-6.866
	C45.583,25.946,45.072,25.436,45.072,24.802z M35.505,29.624v-3.296c0-1.465,1.197-2.663,2.67-2.663h1.176
	c0.633,0,1.144,0.512,1.144,1.137c0,0.634-0.511,1.145-1.144,1.145h-1.176c-0.206,0-0.381,0.176-0.381,0.382v3.296
	c0,0.633-0.512,1.144-1.145,1.144C36.016,30.768,35.505,30.257,35.505,29.624z M81.69,24.802c0,0.634-0.512,1.145-1.145,1.145H73.68
	c-0.633,0-1.145-0.511-1.145-1.145c0-0.625,0.512-1.137,1.145-1.137h6.866C81.179,23.665,81.69,24.177,81.69,24.802z M91.196,36.551
	v6.866c0,0.633-0.512,1.144-1.145,1.144c-0.634,0-1.145-0.511-1.145-1.144v-6.866c0-0.626,0.511-1.145,1.145-1.145
	C90.685,35.406,91.196,35.925,91.196,36.551z M91.196,26.328v3.356c0,0.633-0.512,1.145-1.145,1.145
	c-0.634,0-1.145-0.512-1.145-1.145v-3.356c0-0.206-0.168-0.382-0.382-0.382h-1.113c-0.633,0-1.145-0.511-1.145-1.145
	c0-0.625,0.512-1.137,1.145-1.137h1.113C89.998,23.665,91.196,24.863,91.196,26.328z M91.196,50.282v6.592
	c0,1.464-1.198,2.662-2.671,2.67h-4.47c-0.634,0-1.145-0.519-1.145-1.152c0-0.625,0.511-1.145,1.145-1.145h4.47
	c0.214,0,0.382-0.167,0.382-0.373v-6.592c0-0.625,0.511-1.145,1.145-1.145C90.685,49.138,91.196,49.657,91.196,50.282z
	 M67.959,24.802c0,0.634-0.513,1.145-1.145,1.145h-6.866c-0.633,0-1.145-0.511-1.145-1.145c0-0.625,0.512-1.137,1.145-1.137h6.866
	C67.446,23.665,67.959,24.177,67.959,24.802z M78.333,58.392c0,0.634-0.511,1.152-1.144,1.152h-6.866
	c-0.625,0-1.145-0.519-1.145-1.152c0-0.625,0.52-1.145,1.145-1.145h6.866C77.822,57.247,78.333,57.767,78.333,58.392z"/>
</svg>
