<?xml version="1.0" encoding="iso-8859-1"?>
<!-- Generator: Adobe Illustrator 16.0.0, SVG Export Plug-In . SVG Version: 6.00 Build 0)  -->
<!DOCTYPE svg PUBLIC "-//W3C//DTD SVG 1.1//EN" "http://www.w3.org/Graphics/SVG/1.1/DTD/svg11.dtd">
<svg version="1.1" id="Layer_1" xmlns="http://www.w3.org/2000/svg" xmlns:xlink="http://www.w3.org/1999/xlink" x="0px" y="0px"
	 width="31.832px" height="30.849px" viewBox="0 0 31.832 30.849" style="enable-background:new 0 0 31.832 30.849;"
	 xml:space="preserve">
<g>
	<path d="M14.059,11.778L6.57,12.934c-0.112-0.102-0.229-0.199-0.355-0.284c-1.387-0.938-3.409-0.676-4.808,0.624
		c-0.776,0.723-1.267,1.664-1.381,2.651c-0.118,1.02,0.175,1.968,0.826,2.668c0.162,0.174,0.342,0.328,0.537,0.46
		c0,0.001,0,0,0,0.001c1.062,0.718,2.494,0.729,3.735,0.115c0.053,0.064,0.112,0.124,0.185,0.172c0.41,0.279,0.967,0.17,1.245-0.24
		c0.217-0.32,0.196-0.729-0.019-1.024c0.58-0.664,0.948-1.465,1.043-2.299c0.061-0.524,0.011-1.028-0.138-1.49l7.353-0.595
		L14.059,11.778z M6.512,15.654c-0.084,0.734-0.456,1.439-1.045,1.988c-1.037,0.962-2.499,1.183-3.476,0.521
		c-0.127-0.086-0.247-0.188-0.352-0.302c-0.434-0.466-0.627-1.109-0.546-1.813c0.085-0.735,0.457-1.44,1.046-1.987
		c1.036-0.964,2.499-1.184,3.476-0.522c0.128,0.086,0.247,0.188,0.352,0.302C6.399,14.308,6.593,14.951,6.512,15.654z"/>
	<polygon points="18.577,13.385 31.331,5.172 31.832,4.298 22.625,8.508 18.489,13.393 	"/>
	<path d="M10.342,27.426c0.486-0.091,0.964-0.267,1.414-0.522c1.659-0.946,2.513-2.798,2.032-4.402
		c-0.043-0.146-0.101-0.286-0.166-0.423l4.071-8.674L29.041,0l-1.205,0.707l-13.002,11.29l0.696,1.818l-3.265,6.823
		c-0.319-0.174-0.673-0.3-1.056-0.373c-0.977-0.187-2.022,0.002-2.943,0.527c-1.658,0.945-2.513,2.798-2.032,4.401
		c0.068,0.227,0.162,0.445,0.279,0.65c0.264,0.461,0.637,0.838,1.087,1.117c0.888,1.109,0.139,2.747,0.11,3.146
		c-0.03,0.406,0.699,0.889,0.863,0.698C8.73,30.626,9.067,27.89,10.342,27.426z M16.328,12.769
		c-0.215-0.224-0.208-0.578,0.016-0.795c0.224-0.215,0.58-0.209,0.794,0.016c0.216,0.224,0.208,0.58-0.015,0.794
		C16.9,12.999,16.543,12.992,16.328,12.769z M11.223,25.972c-0.699,0.398-1.483,0.542-2.209,0.403
		c-0.695-0.132-1.252-0.509-1.567-1.063c-0.078-0.134-0.139-0.278-0.183-0.426c-0.339-1.13,0.307-2.46,1.536-3.162
		c0.699-0.398,1.483-0.541,2.21-0.403c0.694,0.132,1.252,0.51,1.567,1.063c0.076,0.134,0.138,0.278,0.183,0.427
		C13.098,23.939,12.452,25.27,11.223,25.972z"/>
</g>
<g>
</g>
<g>
</g>
<g>
</g>
<g>
</g>
<g>
</g>
<g>
</g>
<g>
</g>
<g>
</g>
<g>
</g>
<g>
</g>
<g>
</g>
<g>
</g>
<g>
</g>
<g>
</g>
<g>
</g>
</svg>
