<?xml version="1.0" encoding="iso-8859-1"?>
<!-- Generator: Adobe Illustrator 16.0.0, SVG Export Plug-In . SVG Version: 6.00 Build 0)  -->
<!DOCTYPE svg PUBLIC "-//W3C//DTD SVG 1.1//EN" "http://www.w3.org/Graphics/SVG/1.1/DTD/svg11.dtd">
<svg version="1.1" id="Layer_1" xmlns="http://www.w3.org/2000/svg" xmlns:xlink="http://www.w3.org/1999/xlink" x="0px" y="0px"
	 width="30.997px" height="28.542px" viewBox="0 0 30.997 28.542" style="enable-background:new 0 0 30.997 28.542;"
	 xml:space="preserve">
<path d="M29.697,0.042c-1.089,0.264-10.09,2.44-17.011,4.113c0.056-0.094,0.112-0.188,0.168-0.282
	c0.488-0.745-0.692-1.214-2.302-0.569C9.976,3.649,9.369,4.276,8.753,5.106C6.254,5.709,4.57,6.117,4.57,6.117
	S3.977,6.542,4.445,6.847c0.999,0.049,2.133-0.041,3.28-0.202C3.922,12.906,0.025,25.151,0,26.241
	c-0.032,1.367,3.836,3.008,3.367,1.977c0.301-5.958,3.208-13.512,8.294-22.321c1.555-0.347,2.806-0.658,3.316-0.668
	c1.234-0.025,4.382-0.565,4.382-0.565s0.039,0.946,0.3,0.877c0.263-0.066,11.245-2.885,11.245-2.885S31.494-0.393,29.697,0.042z
	 M2.255,26.586c-0.179,0.152-0.448,0.129-0.601-0.051c-0.151-0.18-0.129-0.448,0.051-0.601c0.181-0.152,0.45-0.129,0.602,0.049
	C2.459,26.165,2.437,26.434,2.255,26.586z M11.087,5.138c-0.18,0.15-0.451,0.127-0.603-0.053c-0.15-0.18-0.128-0.449,0.051-0.601
	c0.18-0.152,0.45-0.129,0.601,0.051C11.288,4.715,11.267,4.985,11.087,5.138z"/>
<g>
</g>
<g>
</g>
<g>
</g>
<g>
</g>
<g>
</g>
<g>
</g>
<g>
</g>
<g>
</g>
<g>
</g>
<g>
</g>
<g>
</g>
<g>
</g>
<g>
</g>
<g>
</g>
<g>
</g>
</svg>
