<?xml version="1.0" encoding="iso-8859-1"?>
<!-- Generator: Adobe Illustrator 17.0.0, SVG Export Plug-In . SVG Version: 6.00 Build 0)  -->
<!DOCTYPE svg PUBLIC "-//W3C//DTD SVG 1.1//EN" "http://www.w3.org/Graphics/SVG/1.1/DTD/svg11.dtd">
<svg version="1.1" id="Capa_1" xmlns="http://www.w3.org/2000/svg" xmlns:xlink="http://www.w3.org/1999/xlink" x="0px" y="0px"
	 width="64px" height="64px" viewBox="0 0 64 64" style="enable-background:new 0 0 64 64;" xml:space="preserve">
<path d="M60,25.012H44.835l-3.212-6.368c-0.391-0.774-1.23-1.208-2.091-1.076c-0.856,0.132-1.53,0.801-1.669,1.656l-1.436,8.841
	l-1.359,8.369l-1.058-8.261L31.67,9.902c-0.12-0.933-0.873-1.656-1.809-1.738c-0.938-0.073-1.804,0.499-2.084,1.396l-5.975,19.158
	l-1.795,5.755l-0.914-5.634l-1.351-8.327c-0.142-0.873-0.84-1.549-1.717-1.663c-0.876-0.107-1.725,0.361-2.084,1.17L10.61,27.5
	H4.333c-1.104,0-2,0.896-2,2s0.896,2,2,2h7.576c0.79,0,1.506-0.465,1.827-1.187l0.561-1.259l0.571-1.282l0.202,1.247l2.346,14.467
	c0.148,0.916,0.907,1.609,1.833,1.675c0.926,0.057,1.774-0.514,2.051-1.399l4.751-15.234l2.816-9.028l1.133,8.852l2.849,22.253
	c0.126,0.985,0.957,1.729,1.95,1.746c0.011,0,0.023,0,0.034,0c0.979,0,1.816-0.71,1.974-1.68l3.701-22.789l0.315-1.94l0.95,1.884
	l0.043,0.086c0.34,0.675,1.031,1.1,1.786,1.1H60c1.104,0,2-0.896,2-2S61.104,25.012,60,25.012z"/>
</svg>
