<?xml version="1.0" encoding="utf-8"?>
<!-- Generator: Adobe Illustrator 17.0.0, SVG Export Plug-In . SVG Version: 6.00 Build 0)  -->
<!DOCTYPE svg PUBLIC "-//W3C//DTD SVG 1.1//EN" "http://www.w3.org/Graphics/SVG/1.1/DTD/svg11.dtd">
<svg version="1.1" id="Layer_1" xmlns="http://www.w3.org/2000/svg" xmlns:xlink="http://www.w3.org/1999/xlink" x="0px" y="0px"
	 width="100px" height="100px" viewBox="0 0 100 100" enable-background="new 0 0 100 100" xml:space="preserve">
<g>
	<path d="M44.054,46.809L12.824,78.04l9.546,9.546L53.6,56.355l14.378-14.378l-9.546-9.546L44.054,46.809z M22.369,84.757
		l-6.718-6.718l29.817-29.817l6.718,6.718L22.369,84.757z M58.432,35.26l6.718,6.718L53.6,53.527l-6.718-6.718L58.432,35.26z"/>
	<polygon points="78.94,49.037 80.94,49.036 80.94,42.8 87.176,42.8 87.176,40.8 80.94,40.8 80.94,34.564 78.94,34.564 78.94,40.8 
		72.704,40.8 72.704,42.8 78.94,42.8 	"/>
	<polygon points="81.155,56.059 81.155,54.059 74.918,54.059 74.918,47.823 72.919,47.823 72.919,54.059 66.682,54.059 
		66.682,56.059 72.919,56.059 72.919,62.295 74.918,62.295 74.918,56.059 	"/>
	<polygon points="66.016,18.65 59.78,18.65 59.78,12.414 57.78,12.414 57.78,18.65 51.544,18.65 51.544,20.65 57.78,20.65 
		57.78,26.886 59.78,26.886 59.78,20.65 66.016,20.65 	"/>
	<polygon points="52.759,24.673 46.522,24.673 46.522,18.436 44.523,18.436 44.523,24.673 38.286,24.673 38.286,26.672 
		44.523,26.672 44.523,32.909 46.522,32.909 46.522,26.672 52.759,26.672 	"/>
</g>
</svg>
