<?xml version="1.0" encoding="iso-8859-1"?>
<!-- Generator: Adobe Illustrator 16.0.0, SVG Export Plug-In . SVG Version: 6.00 Build 0)  -->
<!DOCTYPE svg PUBLIC "-//W3C//DTD SVG 1.1//EN" "http://www.w3.org/Graphics/SVG/1.1/DTD/svg11.dtd">
<svg version="1.1" id="Capa_1" xmlns="http://www.w3.org/2000/svg" xmlns:xlink="http://www.w3.org/1999/xlink" x="0px" y="0px"
	 width="100px" height="78px" viewBox="0 0 100 78" style="enable-background:new 0 0 100 78;" xml:space="preserve">
<g>
	<path d="M75,68H10V23h12.975c0,0,3.447-4.484,10.85-10H5c-2.762,0-5,2.238-5,5v55c0,2.762,2.238,5,5,5h75c2.762,0,5-2.238,5-5
		V54.268l-10,8.226V68z M66.81,33.25V51L100,24.997L66.81,0v15.652C26.5,15.652,26.5,55.5,26.5,55.5
		C37.908,36.759,44.93,33.25,66.81,33.25z"/>
</g>
<g>
</g>
<g>
</g>
<g>
</g>
<g>
</g>
<g>
</g>
<g>
</g>
<g>
</g>
<g>
</g>
<g>
</g>
<g>
</g>
<g>
</g>
<g>
</g>
<g>
</g>
<g>
</g>
<g>
</g>
</svg>
