<?xml version="1.0" encoding="utf-8"?>
<!-- Generator: Adobe Illustrator 16.0.0, SVG Export Plug-In . SVG Version: 6.00 Build 0)  -->
<!DOCTYPE svg PUBLIC "-//W3C//DTD SVG 1.1//EN" "http://www.w3.org/Graphics/SVG/1.1/DTD/svg11.dtd">
<svg version="1.1" id="Layer_2" xmlns="http://www.w3.org/2000/svg" xmlns:xlink="http://www.w3.org/1999/xlink" x="0px" y="0px"
	 width="126px" height="126px" viewBox="0 0 126 126" enable-background="new 0 0 126 126" xml:space="preserve">
<path d="M108.275,67.184H92.898V32.746c0-2.053-1.674-3.724-3.725-3.724H15.797c-2.053,0-3.721,1.671-3.721,3.724v60.51
	c0,2.052,1.668,3.722,3.721,3.722h59.969c-0.006-0.042-0.006-0.085-0.01-0.126h13.42c2.053,0,3.723-1.67,3.723-3.722V78.481h15.377
	c3.115,0,5.648-2.534,5.648-5.648C113.924,69.718,111.391,67.184,108.275,67.184z M85.428,33.33c1.34,0,2.426,1.088,2.426,2.429
	s-1.086,2.429-2.426,2.429C84.086,38.188,83,37.1,83,35.759S84.086,33.33,85.428,33.33z M74.73,33.33
	c1.338,0,2.428,1.088,2.428,2.429s-1.09,2.429-2.428,2.429c-1.344,0-2.43-1.088-2.43-2.429S73.387,33.33,74.73,33.33z M64.096,33.33
	c1.34,0,2.426,1.088,2.426,2.429s-1.086,2.429-2.426,2.429c-1.342,0-2.428-1.088-2.428-2.429S62.754,33.33,64.096,33.33z
	 M89.707,93.13c0,0.293-0.236,0.531-0.531,0.531H29.418c-0.002,0.043-0.004,0.085-0.006,0.127H15.797
	c-0.295,0-0.531-0.239-0.531-0.532V42.848h73.908c0.186,0,0.363-0.03,0.531-0.074v0.06l-0.004,0.015v24.336h-4.729
	c0.662-0.942,1.021-2.064,1.021-3.242c0-1.509-0.59-2.928-1.656-3.994s-2.484-1.654-3.992-1.654c-1.51,0-2.928,0.588-3.994,1.655
	l-9.205,9.204c-1.102,1.102-1.705,2.627-1.652,4.186c0.055,1.561,0.76,3.041,1.932,4.064l9.834,8.579
	c1.027,0.896,2.348,1.392,3.713,1.392c1.633,0,3.186-0.705,4.258-1.935c0.992-1.138,1.48-2.593,1.379-4.099
	c-0.072-1.044-0.422-2.024-1.008-2.858h4.105V93.13z M108.609,75.971H79.486l3.885,3.389c1.305,1.139,1.441,3.122,0.301,4.428
	c-0.621,0.711-1.49,1.075-2.365,1.075c-0.732,0-1.469-0.254-2.063-0.773l-9.834-8.578c-0.654-0.571-1.043-1.389-1.074-2.258
	c-0.029-0.868,0.303-1.711,0.918-2.325l9.205-9.205c1.227-1.226,3.213-1.226,4.438,0c1.227,1.226,1.227,3.213,0,4.438l-3.533,3.534
	h29.246c1.732,0,3.139,1.405,3.139,3.139S110.342,75.971,108.609,75.971z"/>
</svg>
