<?xml version="1.0" encoding="utf-8"?>
<!-- Generator: Adobe Illustrator 18.0.0, SVG Export Plug-In . SVG Version: 6.00 Build 0)  -->
<!DOCTYPE svg PUBLIC "-//W3C//DTD SVG 1.1//EN" "http://www.w3.org/Graphics/SVG/1.1/DTD/svg11.dtd">
<svg version="1.1" id="Capa_1" xmlns="http://www.w3.org/2000/svg" xmlns:xlink="http://www.w3.org/1999/xlink" x="0px" y="0px"
	 viewBox="0 0 100 100" enable-background="new 0 0 100 100" xml:space="preserve">
<path d="M73.1,36.5c-0.5-3.4,0.4-7.6-0.6-10.9c0.5-0.8,0.2-2-1-2.1c-6.2-0.1-12.2-0.1-18-2.5c-0.9-0.4-2,0.1-2,1.2
	c-0.4,12.2,1.1,24.2,1.1,36.3c-5-3.8-14.9-4.4-19.7,0c-6.1,5.5-2.1,15.6,4.8,18.1c8.2,2.9,16.5-1.7,17.3-9.6c0.8-1.9,0.8-3.5,0.3-5
	c0.8-7.6,0.2-15.3-0.4-23.1c1.8,0.9,4.3,1,5.9,1.2c4,0.4,8.2-0.4,11.8-2.1C73.1,37.7,73.2,37.1,73.1,36.5z M33.5,69.4
	c0.1,0,0.3,0.1,0.4,0.1c0.1,0.4,0.2,0.8,0.4,1.1c0.1,0.1,0.1,0.3,0.2,0.4C34.1,70.5,33.7,70,33.5,69.4z"/>
</svg>
