<?xml version="1.0" encoding="utf-8"?>
<!-- Generator: Adobe Illustrator 17.1.0, SVG Export Plug-In . SVG Version: 6.00 Build 0)  -->
<!DOCTYPE svg PUBLIC "-//W3C//DTD SVG 1.1//EN" "http://www.w3.org/Graphics/SVG/1.1/DTD/svg11.dtd">
<svg version="1.1" id="Layer_1" xmlns="http://www.w3.org/2000/svg" xmlns:xlink="http://www.w3.org/1999/xlink" x="0px" y="0px"
	 width="512px" height="512px" viewBox="0 0 512 512" enable-background="new 0 0 512 512" xml:space="preserve">
<g>
	<path d="M182.781,375.871c-1.727,0-3.453-0.446-5-1.34c-3.094-1.786-5-5.088-5-8.66V139.044c0-3.573,1.906-6.874,5-8.66
		c3.094-1.786,6.906-1.786,10,0l196.438,113.414c3.094,1.786,5,5.087,5,8.66c0,3.573-1.906,6.874-5,8.66L187.781,374.531
		C186.234,375.425,184.508,375.871,182.781,375.871z M192.781,156.365v192.186l166.438-96.093L192.781,156.365z"/>
</g>
<g>
	<path d="M256.712,496.493c-65.185,0-126.467-25.384-172.559-71.477c-46.093-46.092-71.477-107.374-71.477-172.559
		s25.384-126.467,71.477-172.56C130.245,33.807,191.527,8.422,256.712,8.422s126.468,25.384,172.56,71.476
		c46.093,46.092,71.476,107.375,71.476,172.56s-25.384,126.467-71.476,172.559C383.18,471.109,321.897,496.493,256.712,496.493z
		 M256.712,28.422c-59.842,0-116.103,23.304-158.417,65.619c-42.314,42.314-65.618,98.575-65.618,158.417
		c0,59.842,23.304,116.102,65.618,158.417c42.315,42.315,98.575,65.618,158.417,65.618c59.843,0,116.103-23.304,158.418-65.618
		c42.314-42.315,65.618-98.575,65.618-158.417c0-59.842-23.304-116.102-65.618-158.417
		C372.815,51.726,316.555,28.422,256.712,28.422z"/>
</g>
</svg>
