<?xml version="1.0" encoding="utf-8"?>
<!-- Generator: Adobe Illustrator 16.0.4, SVG Export Plug-In . SVG Version: 6.00 Build 0)  -->
<!DOCTYPE svg PUBLIC "-//W3C//DTD SVG 1.1//EN" "http://www.w3.org/Graphics/SVG/1.1/DTD/svg11.dtd">
<svg version="1.1" id="Layer_1" xmlns="http://www.w3.org/2000/svg" xmlns:xlink="http://www.w3.org/1999/xlink" x="0px" y="0px"
	 width="50px" height="50px" viewBox="0 0 50 50" enable-background="new 0 0 50 50" xml:space="preserve">
<path d="M20.725,25.46v-1.936h1.019c0.289,0,0.498,0.05,0.623,0.141c0.123,0.095,0.188,0.25,0.19,0.47l0.008,0.452
	c0.006,0.189,0.015,0.371,0.031,0.539c0.023,0.166,0.047,0.28,0.072,0.33h1.125v-0.132c-0.082-0.041-0.133-0.091-0.166-0.159
	c-0.027-0.067-0.045-0.182-0.045-0.339l-0.027-0.804c-0.01-0.39-0.154-0.67-0.434-0.839c-0.049-0.025-0.105-0.054-0.164-0.075
	c0.104-0.041,0.201-0.09,0.287-0.15c0.314-0.216,0.475-0.559,0.475-1.03c0-0.407-0.141-0.737-0.428-0.985
	c-0.283-0.248-0.658-0.377-1.125-0.377h-1.953h-0.512v4.895h0.512L20.725,25.46L20.725,25.46z M20.725,21.41h1.221
	c0.253,0,0.439,0.054,0.564,0.161c0.129,0.11,0.189,0.272,0.189,0.485c0,0.216-0.066,0.379-0.199,0.487
	c-0.135,0.109-0.33,0.164-0.596,0.164h-1.18V21.41L20.725,21.41z M28.125,25.46h-3.711v-4.895h3.6v0.436v0.439h-2.578v1.034h2.394
	v0.421v0.422h-2.394v1.27h2.689v0.436V25.46z M29.139,24.9c-0.402-0.457-0.604-1.075-0.604-1.859c0-0.796,0.202-1.434,0.604-1.899
	c0.408-0.47,0.951-0.704,1.639-0.704c0.582,0,1.062,0.159,1.445,0.47c0.381,0.312,0.603,0.741,0.67,1.275h-1.018
	c-0.035-0.263-0.15-0.474-0.344-0.629c-0.193-0.153-0.441-0.23-0.742-0.23c-0.379,0-0.678,0.148-0.891,0.452
	c-0.217,0.302-0.324,0.725-0.324,1.257c0,0.523,0.107,0.936,0.32,1.23c0.217,0.298,0.516,0.444,0.895,0.444
	c0.301,0,0.549-0.087,0.742-0.259c0.193-0.173,0.309-0.407,0.344-0.701h1.018c-0.063,0.565-0.283,1.014-0.666,1.343
	c-0.379,0.335-0.86,0.5-1.449,0.5C30.09,25.59,29.547,25.362,29.139,24.9z M16.096,21.151c1.027,0,1.861,0.834,1.861,1.862
	c0,1.028-0.834,1.862-1.861,1.862c-1.029,0-1.863-0.834-1.863-1.862C14.232,21.985,15.066,21.151,16.096,21.151z M14.523,11.158
	v2.84h-2.916v17.803h10.563v7.043l2.916-2.914v0.074l4.203-4.203h6.187v-2.84h2.916V11.157L14.523,11.158L14.523,11.158z
	 M34.305,27.787v0.588v0.588v1.666h-3.84h-0.832h-0.828H28.73l-2.469,2.468l-0.588,0.586l-0.586,0.587l-1.74,1.74v-5.381H12.784
	V15.17h1.739h0.586h0.589h18.606V27.787z M37.217,27.787h-1.74v-13.79H15.698v-1.666h21.52L37.217,27.787L37.217,27.787z"/>
</svg>
