<?xml version="1.0" encoding="utf-8"?>
<!-- Generator: Adobe Illustrator 15.0.0, SVG Export Plug-In . SVG Version: 6.00 Build 0)  -->
<!DOCTYPE svg PUBLIC "-//W3C//DTD SVG 1.1//EN" "http://www.w3.org/Graphics/SVG/1.1/DTD/svg11.dtd">
<svg version="1.1" id="Capa_1" xmlns="http://www.w3.org/2000/svg" xmlns:xlink="http://www.w3.org/1999/xlink" x="0px" y="0px"
	 width="600px" height="600px" viewBox="0 0 600 600" enable-background="new 0 0 600 600" xml:space="preserve">
<g>
	<path d="M299.992,100C189.717,100,100,189.72,100,300c0,110.28,89.717,200,199.992,200C410.273,500,500,410.28,500,300
		C500,189.72,410.273,100,299.992,100z M299.992,473.77c-95.814,0-173.762-77.953-173.762-173.77s77.947-173.769,173.762-173.769
		c95.822,0,173.777,77.953,173.777,173.769S395.814,473.77,299.992,473.77z"/>
	<path d="M365.473,234.529c-5.123-5.123-13.422-5.123-18.545,0L300,281.454l-46.928-46.925c-5.123-5.123-13.424-5.123-18.547,0
		c-5.123,5.12-5.123,13.426,0,18.546L281.447,300l-46.928,46.926c-5.123,5.119-5.123,13.422,0,18.546
		c2.561,2.562,5.918,3.843,9.273,3.843s6.711-1.281,9.271-3.843L300,318.543l46.928,46.932c2.561,2.562,5.916,3.842,9.271,3.842
		s6.711-1.28,9.273-3.842c5.123-5.12,5.123-13.426,0-18.546L318.545,300l46.928-46.925
		C370.596,247.955,370.596,239.652,365.473,234.529z"/>
</g>
</svg>
